<?xml version="1.0" encoding="UTF-8" standalone="no"?>
<svg xmlns="http://www.w3.org/2000/svg"
     width="5.81111in" height="2.31111in"
     viewBox="0 0 523 208">
  <path
        fill="#f0f0f0"
        d="M 321.89,0.70
           C 366.24,0.70 402.98,33.46 409.23,76.08
             410.79,75.94 412.37,75.85 413.96,75.85
             444.47,75.85 469.32,101.75 470.00,133.92
             475.10,131.07 480.95,129.44 487.20,129.44
             506.73,129.44 522.60,145.31 522.60,164.84
             522.60,184.37 502.62,205.78 483.09,205.78
             317.57,206.31 207.60,207.97 42.65,206.89
             20.44,206.89 0.13,196.36 0.13,174.15
             0.13,151.95 18.16,133.92 40.37,133.92
             46.16,133.92 51.65,135.15 56.63,137.35
             65.64,122.43 82.00,112.44 100.70,112.44
             108.06,112.44 115.08,114.00 121.42,116.79
             124.95,94.14 144.55,76.76 168.19,76.76
             186.85,76.76 203.00,87.58 210.71,103.28
             217.61,99.20 225.49,96.58 233.90,95.87
             233.72,93.59 233.62,91.31 233.62,88.98
             233.62,40.25 273.17,0.70 321.89,0.70
             321.89,0.70 321.89,0.70 321.89,0.70 Z" />
</svg>
