<?xml version="1.0" encoding="UTF-8" standalone="no"?>
<svg xmlns="http://www.w3.org/2000/svg"
     width="17.7778in" height="13.3333in"
     viewBox="0 0 1600 1200">
  <path fill="#f0f0f0"
        d="M 322.24,212.00
           C 322.24,212.00 319.73,238.99 319.73,238.99
             319.73,238.99 309.45,230.45 309.45,230.45
             309.45,230.45 317.99,240.73 317.99,240.73
             317.99,240.73 291.00,243.24 291.00,243.24
             291.00,243.24 317.99,245.74 317.99,245.74
             317.99,245.74 309.45,256.02 309.45,256.02
             309.45,256.02 319.73,247.48 319.73,247.48
             319.73,247.48 322.24,274.47 322.24,274.47
             322.24,274.47 324.74,247.48 324.74,247.48
             324.74,247.48 335.02,256.02 335.02,256.02
             335.02,256.02 326.48,245.74 326.48,245.74
             326.48,245.74 353.47,243.24 353.47,243.24
             353.47,243.24 326.48,240.73 326.48,240.73
             326.48,240.73 335.02,230.45 335.02,230.45
             335.02,230.45 324.74,238.99 324.74,238.99
             324.74,238.99 322.24,212.00 322.24,212.00
             322.24,212.00 322.24,212.00 322.24,212.00 Z" />
  <path fill="#f0f0f0"
        d="M 1162.24,490.00
           C 1162.24,490.00 1159.73,516.99 1159.73,516.99
             1159.73,516.99 1149.45,508.45 1149.45,508.45
             1149.45,508.45 1157.99,518.73 1157.99,518.73
             1157.99,518.73 1131.00,521.24 1131.00,521.24
             1131.00,521.24 1157.99,523.74 1157.99,523.74
             1157.99,523.74 1149.45,534.02 1149.45,534.02
             1149.45,534.02 1159.73,525.48 1159.73,525.48
             1159.73,525.48 1162.24,552.47 1162.24,552.47
             1162.24,552.47 1164.74,525.48 1164.74,525.48
             1164.74,525.48 1175.02,534.02 1175.02,534.02
             1175.02,534.02 1166.48,523.74 1166.48,523.74
             1166.48,523.74 1193.47,521.24 1193.47,521.24
             1193.47,521.24 1166.48,518.73 1166.48,518.73
             1166.48,518.73 1175.02,508.45 1175.02,508.45
             1175.02,508.45 1164.74,516.99 1164.74,516.99
             1164.74,516.99 1162.24,490.00 1162.24,490.00
             1162.24,490.00 1162.24,490.00 1162.24,490.00 Z" />
  <path fill="#f0f0f0"
        d="M 492.24,884.00
           C 492.24,884.00 489.73,910.99 489.73,910.99
             489.73,910.99 479.45,902.45 479.45,902.45
             479.45,902.45 487.99,912.73 487.99,912.73
             487.99,912.73 461.00,915.24 461.00,915.24
             461.00,915.24 487.99,917.74 487.99,917.74
             487.99,917.74 479.45,928.02 479.45,928.02
             479.45,928.02 489.73,919.48 489.73,919.48
             489.73,919.48 492.24,946.47 492.24,946.47
             492.24,946.47 494.74,919.48 494.74,919.48
             494.74,919.48 505.02,928.02 505.02,928.02
             505.02,928.02 496.48,917.74 496.48,917.74
             496.48,917.74 523.47,915.24 523.47,915.24
             523.47,915.24 496.48,912.73 496.48,912.73
             496.48,912.73 505.02,902.45 505.02,902.45
             505.02,902.45 494.74,910.99 494.74,910.99
             494.74,910.99 492.24,884.00 492.24,884.00
             492.24,884.00 492.24,884.00 492.24,884.00 Z" />
  <path fill="#f0f0f0"
        d="M 1238.45,779.00
           C 1238.45,779.00 1230.08,869.25 1230.08,869.25
             1230.08,869.25 1195.71,840.71 1195.71,840.71
             1195.71,840.71 1224.25,875.08 1224.25,875.08
             1224.25,875.08 1134.00,883.45 1134.00,883.45
             1134.00,883.45 1224.25,891.82 1224.25,891.82
             1224.25,891.82 1195.71,926.19 1195.71,926.19
             1195.71,926.19 1230.08,897.65 1230.08,897.65
             1230.08,897.65 1238.45,987.90 1238.45,987.90
             1238.45,987.90 1246.82,897.65 1246.82,897.65
             1246.82,897.65 1281.19,926.19 1281.19,926.19
             1281.19,926.19 1252.65,891.82 1252.65,891.82
             1252.65,891.82 1342.90,883.45 1342.90,883.45
             1342.90,883.45 1252.65,875.08 1252.65,875.08
             1252.65,875.08 1281.19,840.71 1281.19,840.71
             1281.19,840.71 1246.82,869.25 1246.82,869.25
             1246.82,869.25 1238.45,779.00 1238.45,779.00
             1238.45,779.00 1238.45,779.00 1238.45,779.00 Z" />
  <path fill="#f0f0f0"
        d="M 143.45,961.00
           C 143.45,961.00 135.08,1051.25 135.08,1051.25
             135.08,1051.25 100.71,1022.71 100.71,1022.71
             100.71,1022.71 129.25,1057.08 129.25,1057.08
             129.25,1057.08 39.00,1065.45 39.00,1065.45
             39.00,1065.45 129.25,1073.82 129.25,1073.82
             129.25,1073.82 100.71,1108.19 100.71,1108.19
             100.71,1108.19 135.08,1079.65 135.08,1079.65
             135.08,1079.65 143.45,1169.90 143.45,1169.90
             143.45,1169.90 151.82,1079.65 151.82,1079.65
             151.82,1079.65 186.19,1108.19 186.19,1108.19
             186.19,1108.19 157.65,1073.82 157.65,1073.82
             157.65,1073.82 247.90,1065.45 247.90,1065.45
             247.90,1065.45 157.65,1057.08 157.65,1057.08
             157.65,1057.08 186.19,1022.71 186.19,1022.71
             186.19,1022.71 151.82,1051.25 151.82,1051.25
             151.82,1051.25 143.45,961.00 143.45,961.00
             143.45,961.00 143.45,961.00 143.45,961.00 Z" />
  <path fill="#f0f0f0"
        d="M 646.42,402.00
           C 646.42,402.00 633.09,545.80 633.09,545.80
             633.09,545.80 578.32,500.32 578.32,500.32
             578.32,500.32 623.80,555.09 623.80,555.09
             623.80,555.09 480.00,568.42 480.00,568.42
             480.00,568.42 623.80,581.76 623.80,581.76
             623.80,581.76 578.32,636.52 578.32,636.52
             578.32,636.52 633.09,591.05 633.09,591.05
             633.09,591.05 646.42,734.85 646.42,734.85
             646.42,734.85 659.76,591.05 659.76,591.05
             659.76,591.05 714.52,636.52 714.52,636.52
             714.52,636.52 669.05,581.76 669.05,581.76
             669.05,581.76 812.85,568.42 812.85,568.42
             812.85,568.42 669.05,555.09 669.05,555.09
             669.05,555.09 714.52,500.32 714.52,500.32
             714.52,500.32 659.76,545.80 659.76,545.80
             659.76,545.80 646.42,402.00 646.42,402.00
             646.42,402.00 646.42,402.00 646.42,402.00 Z" />
</svg>
